<?xml version="1.0" encoding="utf-8"?>
<!-- Generator: Adobe Illustrator 16.0.0, SVG Export Plug-In . SVG Version: 6.00 Build 0)  -->
<!DOCTYPE svg PUBLIC "-//W3C//DTD SVG 1.1//EN" "http://www.w3.org/Graphics/SVG/1.1/DTD/svg11.dtd">
<svg version="1.1" id="Layer_1" xmlns="http://www.w3.org/2000/svg" xmlns:xlink="http://www.w3.org/1999/xlink" x="0px" y="0px"
	 width="300px" height="44.477px" viewBox="0 0 300 44.477" enable-background="new 0 0 300 44.477" xml:space="preserve">
<g>
	<path fill="#FFFFFF" d="M121.939,0h-2.97c6.95,4.126,11.233,8.972,11.233,14.188c0,15.504-32.898,26.931-73.037,26.931
		c-23.19,0-43.838-4.025-57.164-10.286v3.267c13.789,6.35,34.275,10.378,57.164,10.378c43.346,0,75.162-13.229,75.162-29.526
		C132.326,9.488,128.537,4.393,121.939,0"/>
	<path fill="#FFFFFF" d="M103.82,25.581V14.63c2.438,3.651,4.879,7.302,7.322,10.951h3.811V8.543h-4.262V19.44
		c-1.355-2.051-7.178-10.878-7.178-10.878l-3.958-0.003V25.58L103.82,25.581L103.82,25.581z M81.932,21.232h5.861l1.746,4.35h4.869
		L86.947,8.561h-2.652l-7.6,17.021h3.375L81.932,21.232L81.932,21.232z M84.935,14.24l1.831,4.531h-3.794L84.935,14.24z
		 M72.775,22.714h-5.963V8.543h-4.188v17.038h10.15V22.714z M4.769,8.553H0V25.58h4.769V8.553z M25.871,21.233l5.867-0.001
		l1.741,4.35h4.871L30.888,8.561h-2.649l-7.604,17.021h3.379L25.871,21.233z M28.873,14.24l1.83,4.531h-3.795L28.873,14.24
		L28.873,14.24z M48.334,19.559h2.018c0.98,0.038,1.961-0.093,2.896-0.387c1.387-0.464,3.584-2.269,3.584-5.149
		c0-1.462-0.365-2.652-1.09-3.539c-1.11-1.373-2.955-2.013-5.803-2.013h-5.787V25.58h4.182V19.559L48.334,19.559L48.334,19.559z
		 M48.334,11.282h1.189c2.12,0,3.062,0.812,3.062,2.64c0,1.017-0.297,1.827-0.866,2.339c-0.425,0.379-0.996,0.497-2.44,0.497
		c0,0-0.604,0-0.945,0.003V11.282z M17.371,25.581l-5.485-8.451h-1.472l4.908-8.577h-3.644c-0.003,0-4.97,8.577-4.97,8.577
		l5.392,8.451H17.371z M146.891,23.429h-2.279c0.086-2.257,0.102-3.583,0.102-5.878c0-2.481-0.016-3.872-0.102-6.302h2.279
		c-0.088,2.43-0.107,3.819-0.107,6.302C146.785,19.846,146.803,21.172,146.891,23.429 M159.525,11.249h2.002
		c-0.08,2.445-0.098,3.819-0.098,6.302c0,2.294,0.018,3.62,0.098,5.878h-2.033c-2.248-3.416-4.797-7.204-6.543-9.633
		c0,4.163,0,6.423,0.117,9.633h-2.002c0.08-2.259,0.098-3.584,0.098-5.878c0-2.481-0.018-3.873-0.098-6.302h2.379
		c2.377,3.227,4.736,6.729,6.182,8.952C159.627,16.478,159.627,14.222,159.525,11.249 M170.91,23.429h-2.328
		c0.123-2.429,0.137-3.822,0.137-6.303c0-1.63-0.014-2.82-0.066-4.33c-1.75,0-3.023,0.016-4.303,0.116l0.633-1.663h10.004v1.597
		c-1.033-0.05-2.613-0.05-4.127-0.05c-0.066,1.524-0.066,2.665-0.066,4.33C170.793,19.606,170.805,20.999,170.91,23.429
		 M180.338,12.777c-0.031,1.256-0.049,2.361-0.049,3.653c1.695,0,3.57-0.018,4.742-0.088v1.685
		c-1.207-0.068-3.094-0.088-4.742-0.088c0,1.446,0.018,2.654,0.049,3.961c1.803,0,4.107-0.016,5.422-0.082l-0.646,1.613h-6.996
		c0.082-2.262,0.098-3.584,0.098-5.881c0-2.48-0.016-3.87-0.098-6.299h7.084v1.597C184.143,12.777,182.125,12.777,180.338,12.777
		 M191.486,23.429h-2.277c0.086-2.259,0.102-3.583,0.102-5.878c0-2.48-0.016-3.889-0.102-6.302h3.465
		c3.021,0,4.928,1.119,4.928,3.381c0,1.547-0.965,2.65-2.361,3.176c0.783,1.412,2.258,3.858,3.158,5.199l-2.295,0.832
		c-0.916-1.578-2.035-3.757-2.834-5.386c-0.615,0.021-1.26,0.021-1.889,0C191.4,20.234,191.42,21.969,191.486,23.429
		 M191.434,12.796c-0.035,1.375-0.053,2.75-0.053,4.126c0.223,0.019,0.615,0.019,1.053,0.019c1.951,0,2.992-0.749,2.992-2.143
		c0-1.308-1.07-2.021-2.992-2.021C192.045,12.777,191.654,12.777,191.434,12.796 M210.275,11.249h2.008
		c-0.088,2.445-0.104,3.819-0.104,6.302c0,2.294,0.016,3.62,0.104,5.878h-2.041c-2.242-3.416-4.791-7.204-6.543-9.633
		c0,4.163,0,6.423,0.117,9.633h-2.004c0.088-2.259,0.104-3.584,0.104-5.878c0-2.481-0.016-3.873-0.104-6.302h2.383
		c2.143,2.926,4.205,5.911,6.182,8.952C210.377,16.478,210.377,14.222,210.275,11.249 M215,23.429
		c1.479-2.99,3.939-8.58,5.467-12.267h2.074c1.273,3.482,3.281,8.461,4.967,12.267h-2.502c-0.404-1.071-0.883-2.259-1.309-3.431
		h-5.146c-0.447,1.16-0.936,2.304-1.461,3.431H215z M219.146,18.466h4.041c-0.658-1.743-1.299-3.493-1.92-5.249
		C220.723,14.696,219.91,16.616,219.146,18.466 M233.793,23.429h-2.33c0.119-2.429,0.141-3.822,0.141-6.303
		c0-1.63-0.021-2.82-0.072-4.33c-1.75,0-3.027,0.016-4.297,0.116l0.627-1.663h10.006v1.597c-1.035-0.05-2.615-0.05-4.127-0.05
		c-0.068,1.524-0.068,2.665-0.068,4.33C233.672,19.606,233.689,20.999,233.793,23.429 M243.324,23.429h-2.277
		c0.082-2.257,0.102-3.583,0.102-5.878c0-2.481-0.02-3.872-0.102-6.302h2.277c-0.088,2.43-0.105,3.819-0.105,6.302
		C243.219,19.846,243.236,21.172,243.324,23.429 M253.467,11.045c3.857,0,6.455,2.464,6.455,6.132c0,3.907-2.803,6.439-6.455,6.439
		c-3.857,0-6.439-2.428-6.439-6.099C247.029,13.626,249.812,11.045,253.467,11.045 M253.467,12.57c-2.5,0-4.061,1.924-4.061,4.76
		c0,2.871,1.629,4.756,4.061,4.756c2.498,0,4.094-1.898,4.094-4.756C257.561,14.458,255.895,12.57,253.467,12.57 M271.814,11.249
		h2.006c-0.076,2.1-0.111,4.2-0.105,6.302c0,2.294,0.023,3.62,0.105,5.878h-2.039c-2.244-3.416-4.789-7.204-6.543-9.633
		c0,4.163,0,6.423,0.121,9.633h-2.004c0.084-2.259,0.1-3.584,0.1-5.878c0-2.481-0.016-3.873-0.1-6.302h2.379
		c2.143,2.927,4.203,5.912,6.18,8.952C271.914,16.478,271.914,14.222,271.814,11.249 M276.689,23.429
		c1.482-2.99,3.941-8.58,5.469-12.267h2.074c1.275,3.482,3.283,8.461,4.965,12.267h-2.492c-0.416-1.071-0.893-2.259-1.312-3.431
		h-5.148c-0.447,1.161-0.936,2.306-1.465,3.431H276.689L276.689,23.429z M280.836,18.466h4.045
		c-0.703-1.831-1.377-3.721-1.924-5.249C282.416,14.696,281.6,16.616,280.836,18.466 M294.533,21.882c1.816,0,4.176-0.031,5.467-0.1
		l-0.629,1.646h-7.064c0.086-2.259,0.098-3.584,0.098-5.878c0-2.481-0.012-3.873-0.098-6.302h2.275
		c-0.086,2.429-0.104,3.819-0.104,6.302C294.48,19.181,294.496,20.386,294.533,21.882"/>
</g>
</svg>
