<svg xmlns="http://www.w3.org/2000/svg" viewBox="0 0 475.766 475.766"><path d="M237.883 99.02c-1.855.581-9.339 6.848-16.375 29.443-5.719 18.365-9.284 41.583-10.309 66.537h53.368c-1.025-24.955-4.59-48.172-10.309-66.537-7.036-22.595-14.519-28.862-16.375-29.443zm30.332-11.336c16.231 23.293 24.749 65.194 26.376 107.316h68.4c-6.215-52.381-44.558-94.903-94.776-107.316zm-46.707 203.853c7.036 22.595 14.52 28.862 16.375 29.443 1.855-.581 9.339-6.848 16.375-29.443 5.719-18.365 9.284-41.583 10.309-66.537h-53.368c1.025 24.955 4.59 48.172 10.309 66.537zM112.776 195h68.4c1.627-42.121 10.145-84.023 26.375-107.316-50.218 12.413-88.561 54.935-94.775 107.316zm0 30c6.215 52.381 44.557 94.903 94.775 107.316-16.23-23.293-24.749-65.194-26.375-107.316h-68.4zm155.439 107.316c50.218-12.412 88.561-54.935 94.775-107.316h-68.4c-1.626 42.121-10.144 84.023-26.375 107.316zm104.071 2.566l-26.046 14.884L369.23 390h-71.347v-20h-30v50H369.6l-23.36 40.882 26.046 14.884L404.153 420h43.73v-30h-44.1z"/><path d="M57.883 210c0-99.252 80.748-180 180-180s180 80.748 180 180h30c0-115.794-94.206-210-210-210s-210 94.206-210 210 94.206 210 210 210v-30c-99.252 0-180-80.748-180-180z"/></svg>